<?xml version="1.0" encoding="UTF-8" standalone="no"?>
<!-- Created with Inkscape (http://www.inkscape.org/) -->

<svg
   width="42mm"
   height="29.81831mm"
   viewBox="0 0 42 29.81831"
   version="1.1"
   id="svg5"
   inkscape:version="1.2.1 (9c6d41e410, 2022-07-14)"
   sodipodi:docname="minecells_page.svg"
   xml:space="preserve"
   xmlns:inkscape="http://www.inkscape.org/namespaces/inkscape"
   xmlns:sodipodi="http://sodipodi.sourceforge.net/DTD/sodipodi-0.dtd"
   xmlns="http://www.w3.org/2000/svg"
   xmlns:svg="http://www.w3.org/2000/svg"><sodipodi:namedview
     id="namedview7"
     pagecolor="#505050"
     bordercolor="#ffffff"
     borderopacity="1"
     inkscape:showpageshadow="0"
     inkscape:pageopacity="0"
     inkscape:pagecheckerboard="1"
     inkscape:deskcolor="#505050"
     inkscape:document-units="mm"
     showgrid="false"
     inkscape:zoom="1.0444209"
     inkscape:cx="1432.8514"
     inkscape:cy="-208.72811"
     inkscape:window-width="1920"
     inkscape:window-height="1009"
     inkscape:window-x="-8"
     inkscape:window-y="-8"
     inkscape:window-maximized="1"
     inkscape:current-layer="layer1" /><defs
     id="defs2"><rect
       x="459.02795"
       y="410.28162"
       width="134.05241"
       height="39.267879"
       id="rect42915-6-9" /></defs><g
     inkscape:label="Warstwa 1"
     inkscape:groupmode="layer"
     id="layer1"
     transform="translate(-413.22901,49.660666)"><g
       id="g62553-2-3"
       transform="translate(287.229,-136.20752)"><rect
         style="fill:#0d0d0d;fill-opacity:0.00278554;stroke:none;stroke-width:0.536656;stroke-linecap:round;stroke-linejoin:round;stroke-dasharray:none;stroke-dashoffset:0;stroke-opacity:1;paint-order:stroke fill markers"
         id="rect46522-40-9-1"
         width="42"
         height="29.818308"
         x="125.99999"
         y="86.546852" /><text
         xml:space="preserve"
         transform="matrix(0.26458333,0,0,0.26458333,7.83189,-6.07647)"
         id="text42889-5-3"
         style="font-style:normal;font-variant:normal;font-weight:bold;font-stretch:normal;font-size:16px;font-family:Montserrat;-inkscape-font-specification:'Montserrat Bold';text-align:center;white-space:pre;shape-inside:url(#rect42915-6-9);display:inline;fill:#ffffff;fill-opacity:1;stroke:none;stroke-width:4.53543;stroke-linecap:round;stroke-linejoin:round;stroke-dasharray:none;stroke-dashoffset:0;stroke-opacity:1;paint-order:stroke fill markers"><tspan
           x="493.1897"
           y="424.98675"
           id="tspan7317">Join my
</tspan><tspan
           x="493.96115"
           y="444.98675"
           id="tspan7319">Discord</tspan></text><path
         d="m 150.71357,91.825573 c -0.69256,-0.32404 -1.43309,-0.55953 -2.20728,-0.69363 -0.0951,0.1719 -0.20617,0.40312 -0.28275,0.58704 -0.82299,-0.12371 -1.63843,-0.12371 -2.44629,0 -0.0765,-0.18392 -0.19018,-0.41514 -0.28611,-0.58704 -0.77503,0.1341 -1.51641,0.37046 -2.20897,0.69535 -1.39692,2.11091 -1.7756,4.1694 -1.58626,6.19865 0.92651,0.6919 1.82441,1.11222 2.70716,1.38724 0.21794,-0.29997 0.41233,-0.61884 0.57979,-0.9549 -0.31893,-0.12121 -0.6244,-0.27073 -0.91304,-0.44436 0.0767,-0.0568 0.15148,-0.11607 0.22385,-0.17706 1.76043,0.82341 3.6732,0.82341 5.41261,0 0.0732,0.061 0.14811,0.12029 0.22384,0.17706 -0.28948,0.17448 -0.59579,0.32403 -0.91471,0.44523 0.16745,0.33519 0.36101,0.65493 0.5798,0.95488 0.88359,-0.27503 1.78232,-0.69532 2.70883,-1.38809 0.22216,-2.35242 -0.37953,-4.392 -1.59047,-6.20037 z m -5.49087,4.9524 c -0.52848,0 -0.96186,-0.49334 -0.96186,-1.09414 0,-0.60078 0.42414,-1.09499 0.96186,-1.09499 0.53773,0 0.97111,0.49334 0.96185,1.09499 8.3e-4,0.6008 -0.42412,1.09414 -0.96185,1.09414 z m 3.55456,0 c -0.52848,0 -0.96186,-0.49334 -0.96186,-1.09414 0,-0.60078 0.42413,-1.09499 0.96186,-1.09499 0.53772,0 0.97111,0.49334 0.96185,1.09499 0,0.6008 -0.42413,1.09414 -0.96185,1.09414 z"
         fill="#5865f2"
         fill-rule="nonzero"
         id="path42905-3-6"
         style="fill:#ffffff;fill-opacity:1;stroke:none;stroke-width:1.2;stroke-linecap:round;stroke-linejoin:round;stroke-dasharray:none;stroke-opacity:1;paint-order:stroke fill markers" /></g></g><style
     type="text/css"
     id="style4759">
	.st0{fill:#0D0D0D;}
	.st1{fill:#FFFFFF;}
</style></svg>
