<?xml version="1.0" encoding="UTF-8" standalone="no"?>
<!-- Created with Inkscape (http://www.inkscape.org/) -->

<svg
   width="42mm"
   height="29.818308mm"
   viewBox="0 0 42 29.818308"
   version="1.1"
   id="svg5"
   inkscape:version="1.2.1 (9c6d41e410, 2022-07-14)"
   sodipodi:docname="minecells_page.svg"
   xml:space="preserve"
   xmlns:inkscape="http://www.inkscape.org/namespaces/inkscape"
   xmlns:sodipodi="http://sodipodi.sourceforge.net/DTD/sodipodi-0.dtd"
   xmlns="http://www.w3.org/2000/svg"
   xmlns:svg="http://www.w3.org/2000/svg"><sodipodi:namedview
     id="namedview7"
     pagecolor="#505050"
     bordercolor="#ffffff"
     borderopacity="1"
     inkscape:showpageshadow="0"
     inkscape:pageopacity="0"
     inkscape:pagecheckerboard="1"
     inkscape:deskcolor="#505050"
     inkscape:document-units="mm"
     showgrid="false"
     inkscape:zoom="1.0444209"
     inkscape:cx="1432.8514"
     inkscape:cy="-208.72811"
     inkscape:window-width="1920"
     inkscape:window-height="1009"
     inkscape:window-x="-8"
     inkscape:window-y="-8"
     inkscape:window-maximized="1"
     inkscape:current-layer="layer1" /><defs
     id="defs2"><rect
       x="102.23189"
       y="406.89648"
       width="208.52599"
       height="46.038204"
       id="rect42911-0-5" /><rect
       x="102.23189"
       y="406.89648"
       width="208.52599"
       height="46.038204"
       id="rect42909-0-3" /></defs><g
     inkscape:label="Warstwa 1"
     inkscape:groupmode="layer"
     id="layer1"
     transform="translate(-287.22901,49.660651)"><g
       id="g62567-5-2"
       transform="translate(287.229,-136.20752)"
       inkscape:export-filename="..\mim1q_personal\wiki\docs\img\owo"
       inkscape:export-xdpi="96"
       inkscape:export-ydpi="96"><rect
         style="fill:#0d0d0d;fill-opacity:0.00278554;stroke:none;stroke-width:0.536656;stroke-linecap:round;stroke-linejoin:round;stroke-dasharray:none;stroke-dashoffset:0;stroke-opacity:1;paint-order:stroke fill markers"
         id="rect46522-4-1-1"
         width="42"
         height="29.818308"
         x="42"
         y="86.546867" /><text
         xml:space="preserve"
         transform="matrix(0.45631476,0,0,0.45631476,-30.803436,-83.195761)"
         id="text42877-3-7"
         style="font-style:normal;font-variant:normal;font-weight:bold;font-stretch:normal;font-size:9.27722px;font-family:Montserrat;-inkscape-font-specification:'Montserrat Bold';text-align:center;white-space:pre;shape-inside:url(#rect42911-0-5);display:inline;fill:#ffffff;fill-opacity:1;stroke:none;stroke-width:2.62976;stroke-linecap:round;stroke-linejoin:round;stroke-dasharray:none;stroke-dashoffset:0;stroke-opacity:1;paint-order:stroke fill markers"
         x="-22.248554"
         y="0"><tspan
           x="183.71312"
           y="415.42312"
           id="tspan8501">Requires 
</tspan><tspan
           x="188.38132"
           y="427.01964"
           id="tspan8503">owo-lib</tspan></text><path
         id="path42901-8-8"
         style="fill:#ffffff;fill-opacity:1;stroke:none;stroke-width:1.2;stroke-linecap:round;stroke-linejoin:round;stroke-dasharray:none;stroke-dashoffset:0;stroke-opacity:1;paint-order:stroke fill markers"
         d="m 62.995214,91.147148 a 4.1257753,4.1257753 0 0 0 -2.90705,1.19818 c 0.14781,0.15813 0.26093,0.35385 0.32428,0.5739 l 0.19008,0.65863 a 2.9350145,2.9350145 0 0 1 2.39269,-1.23986 2.9350145,2.9350145 0 0 1 2.39865,1.24902 l 0.19283,-0.66963 c 0.0627,-0.21757 0.17411,-0.41115 0.31923,-0.56794 a 4.1257753,4.1257753 0 0 0 -2.91071,-1.2023 z m -3.83316,1.2307 c -0.0675,4e-4 -0.13486,0.0103 -0.20245,0.0298 -0.43256,0.12456 -0.67015,0.60785 -0.53313,1.08367 l 1.33283,4.63241 c 0.10796,0.37493 0.41577,0.62918 0.75299,0.65955 h 0.002 c 0.32109,0.0749 0.67347,-0.0727 0.8739,-0.39848 l 1.61177,-2.62079 1.61177,2.62079 c 0.20063,0.32611 0.55302,0.4739 0.87436,0.39848 h 0.002 c 0.33723,-0.0304 0.64502,-0.28461 0.75299,-0.65955 l 1.33329,-4.63241 c 0.137,-0.47581 -0.10057,-0.95911 -0.53313,-1.08367 -0.0676,-0.0195 -0.13676,-0.0293 -0.20428,-0.0298 -0.36467,-0.002 -0.70838,0.26173 -0.82398,0.66321 l -0.88306,3.06232 -1.42123,-2.31117 c -0.1714,-0.27859 -0.45173,-0.42684 -0.73054,-0.41726 -0.004,1.2e-4 -0.009,0.002 -0.0137,0.002 -0.008,4.2e-4 -0.0162,8.8e-4 -0.0243,0.002 -0.009,7e-4 -0.0189,8.9e-4 -0.0279,0.002 -0.24093,0.0276 -0.47233,0.17182 -0.62108,0.4136 l -1.42123,2.30933 -0.88306,-3.06232 c -0.1156,-0.40147 -0.45932,-0.66531 -0.82398,-0.66321 z m 4.73225,5.68585 a 2.9350145,2.9350145 0 0 1 -0.89909,0.14428 2.9350145,2.9350145 0 0 1 -0.89222,-0.14199 l -0.33847,0.55009 c -0.11101,0.18044 -0.25942,0.32619 -0.42917,0.43099 a 4.1257753,4.1257753 0 0 0 1.65986,0.35176 4.1257753,4.1257753 0 0 0 1.66765,-0.35222 c -0.16916,-0.10482 -0.31694,-0.25036 -0.42779,-0.43053 z" /></g><g
       id="g62574-8-5"
       transform="translate(287.229,-136.20752)"
       inkscape:export-filename="fabric.svg"
       inkscape:export-xdpi="96"
       inkscape:export-ydpi="96"><rect
         style="fill:#0d0d0d;fill-opacity:0.00278554;stroke:none;stroke-width:0.536656;stroke-linecap:round;stroke-linejoin:round;stroke-dasharray:none;stroke-dashoffset:0;stroke-opacity:1;paint-order:stroke fill markers"
         id="rect46522-21-0"
         width="42"
         height="29.818308"
         x="4.4408921e-16"
         y="86.546867" /><text
         xml:space="preserve"
         transform="matrix(0.45631476,0,0,0.45631476,-73.226772,-83.195761)"
         id="text42871-2-6"
         style="font-style:normal;font-variant:normal;font-weight:bold;font-stretch:normal;font-size:9.27722px;font-family:Montserrat;-inkscape-font-specification:'Montserrat Bold';text-align:center;white-space:pre;shape-inside:url(#rect42909-0-3);display:inline;fill:#ffffff;fill-opacity:1;stroke:none;stroke-width:2.62976;stroke-linecap:round;stroke-linejoin:round;stroke-dasharray:none;stroke-dashoffset:0;stroke-opacity:1;paint-order:stroke fill markers"
         x="-24.044489"
         y="0"><tspan
           x="183.71312"
           y="415.42312"
           id="tspan8505">Requires 
</tspan><tspan
           x="181.68062"
           y="427.01964"
           id="tspan8507">Fabric API</tspan></text><path
         id="path42903-3-1"
         style="fill:#ffffff;fill-opacity:1;stroke:none;stroke-width:1.2;stroke-linecap:round;stroke-linejoin:round;stroke-dasharray:none;stroke-dashoffset:0;stroke-opacity:1;paint-order:stroke fill markers"
         d="m 21.332368,90.617976 v 0.665001 h 0.665 v -0.665001 z m 0.665,0.665001 v 0.665 h 0.665 v -0.665 z m 0.665,0.665 v 0.66501 h 0.66501 v -0.66501 z m 0.66501,0.66501 v 0.66499 h 0.66499 v -0.66499 z m 0.66499,0.66499 v 1.33001 h 0.66501 v 0.665 h 0.66499 v -1.33 h -0.66499 v -0.66501 z m 0.66501,1.99501 h -0.66501 v -0.665001 h -0.66499 v 1.33 h 1.33 z m -1.33,0.665 h -0.66501 v 0.665 h 0.66501 z m -0.66501,0.665 h -0.665 v 0.66501 h 0.665 z m -0.665,0.66501 h -0.665 v 0.66499 h 0.665 z m -0.665,0.66499 h -0.665 v 0.66501 h -0.665 v 0.665 h -0.665 V 99.928 h 1.33 v -0.665003 h 0.665 z m -1.995,1.33001 v -0.665 h -0.66501 v 0.665 z m -0.66501,-0.665 v -0.66501 h -0.66499 v 0.66501 z m -0.66499,-0.66501 v -0.66499 h -0.66501 v 0.66499 z m -0.66501,-0.66499 v -1.33001 h -0.66499 v 1.33001 z m 0,-1.33001 h 0.66501 v -0.665 h -0.66501 z m 0.66501,-0.665 h 0.66499 v -0.665001 h -0.66499 z m 0.66499,-0.665001 h 0.66501 v -0.665 h -0.66501 z m 0.66501,-0.665 h 0.665 v -0.66501 h -0.665 z m 0.665,-0.66501 h 0.665 v -0.66499 h -0.665 z m 0.665,-0.66499 h 0.665 v -1.33001 h -0.665 z m 0.665,0 v 0.66499 h 0.665 v -0.66499 z m 0.665,0.66499 v 0.66501 h 0.665 v -0.66501 z m 0.665,0.66501 v 0.665 h 0.66501 v -0.665 z" /></g></g><style
     type="text/css"
     id="style4759">
	.st0{fill:#0D0D0D;}
	.st1{fill:#FFFFFF;}
</style></svg>
