<?xml version="1.0" encoding="UTF-8" standalone="no"?>
<!-- Created with Inkscape (http://www.inkscape.org/) -->

<svg
   width="42.000031mm"
   height="29.818308mm"
   viewBox="0 0 42.000031 29.818308"
   version="1.1"
   id="svg5"
   inkscape:version="1.2.1 (9c6d41e410, 2022-07-14)"
   sodipodi:docname="minecells_page.svg"
   xml:space="preserve"
   xmlns:inkscape="http://www.inkscape.org/namespaces/inkscape"
   xmlns:sodipodi="http://sodipodi.sourceforge.net/DTD/sodipodi-0.dtd"
   xmlns="http://www.w3.org/2000/svg"
   xmlns:svg="http://www.w3.org/2000/svg"><sodipodi:namedview
     id="namedview7"
     pagecolor="#505050"
     bordercolor="#ffffff"
     borderopacity="1"
     inkscape:showpageshadow="0"
     inkscape:pageopacity="0"
     inkscape:pagecheckerboard="1"
     inkscape:deskcolor="#505050"
     inkscape:document-units="mm"
     showgrid="false"
     inkscape:zoom="1.4770342"
     inkscape:cx="1379.4535"
     inkscape:cy="-88.691244"
     inkscape:window-width="2560"
     inkscape:window-height="1009"
     inkscape:window-x="1912"
     inkscape:window-y="-8"
     inkscape:window-maximized="1"
     inkscape:current-layer="layer1" /><defs
     id="defs2"><rect
       x="293.83206"
       y="410.28162"
       width="132.02132"
       height="40.621944"
       id="rect42913-0-1" /><rect
       x="102.23189"
       y="406.89648"
       width="208.52599"
       height="46.038204"
       id="rect42911-0-5" /><rect
       x="459.02795"
       y="410.28162"
       width="134.05241"
       height="39.267879"
       id="rect42915-6-9" /></defs><g
     inkscape:label="Warstwa 1"
     inkscape:groupmode="layer"
     id="layer1"
     transform="translate(-371.22898,49.660651)"><g
       id="g1090"><rect
         style="fill:#fe3700;fill-opacity:1;stroke:none;stroke-width:1.11596;stroke-linecap:round;stroke-linejoin:round;stroke-dasharray:none;stroke-dashoffset:0;stroke-opacity:1;paint-order:stroke fill markers"
         id="rect67429-1-8"
         width="5.8701267"
         height="5.1515899"
         x="388.04254"
         y="-43.51033" /><g
         id="g62560-3-9"
         transform="translate(287.229,-136.20752)"><rect
           style="fill:#0d0d0d;fill-opacity:0.00278554;stroke:none;stroke-width:0.536656;stroke-linecap:round;stroke-linejoin:round;stroke-dasharray:none;stroke-dashoffset:0;stroke-opacity:1;paint-order:stroke fill markers"
           id="rect46522-2-6-0"
           width="42"
           height="29.818308"
           x="83.999992"
           y="86.546867" /><text
           xml:space="preserve"
           transform="matrix(0.26458333,0,0,0.26458333,9.80006,-6.07647)"
           id="text42883-7-1"
           style="font-style:normal;font-variant:normal;font-weight:bold;font-stretch:normal;font-size:16px;font-family:Montserrat;-inkscape-font-specification:'Montserrat Bold';text-align:center;white-space:pre;shape-inside:url(#rect42913-0-1);display:inline;fill:#ffffff;fill-opacity:1;stroke:none;stroke-width:4.53543;stroke-linecap:round;stroke-linejoin:round;stroke-dasharray:none;stroke-dashoffset:0;stroke-opacity:1;paint-order:stroke fill markers"><tspan
             x="310.17903"
             y="424.98675"
             id="tspan2068">Support me
</tspan><tspan
             x="325.13724"
             y="444.98675"
             id="tspan2070">on Ko-Fi</tspan></text><path
           id="path42899-2-2"
           style="fill:#ffffff;fill-opacity:1;stroke:none;stroke-width:1.2;stroke-linecap:round;stroke-linejoin:round;stroke-dasharray:none;stroke-dashoffset:0;stroke-opacity:1;paint-order:stroke fill markers"
           d="m 100.36861,91.892058 c -0.17348,0 -0.31316,0.13967 -0.31316,0.31316 v 0.88986 2.24534 2.11047 c 0,0.66664 0.53639,1.20303 1.20303,1.20303 h 5.25136 c 0.66664,0 1.20303,-0.53639 1.20303,-1.20303 v -0.73381 h 0.45113 a 2.412648,2.412648 0 0 0 2.41277,-2.41277 2.412648,2.412648 0 0 0 -2.41277,-2.41225 h -0.76429 -0.21601 -0.67386 -5.25136 z m 7.34426,1.10794 h 0.45113 a 1.3043284,1.3043284 0 0 1 1.30431,1.30431 1.3043284,1.3043284 0 0 1 -1.30431,1.30431 v 5.2e-4 h -0.45113 v -0.26872 -2.24534 z m -5.04001,0.34778 c 0.87039,0 1.2113,0.52503 1.2113,0.52503 0,0 0.34091,-0.52503 1.21129,-0.52503 0.87036,0 1.26327,0.85787 0.94207,1.64951 -0.32121,0.79164 -2.15336,2.37506 -2.15336,2.37505 0,1e-5 -1.83215,-1.58341 -2.15336,-2.37505 -0.32119,-0.79164 0.0717,-1.64951 0.94206,-1.64951 z" /></g></g><g
       id="g62567-5-2"
       transform="translate(287.229,-136.20752)"><rect
         style="fill:#0d0d0d;fill-opacity:0.00278554;stroke:none;stroke-width:0.536656;stroke-linecap:round;stroke-linejoin:round;stroke-dasharray:none;stroke-dashoffset:0;stroke-opacity:1;paint-order:stroke fill markers"
         id="rect46522-4-1-1"
         width="42"
         height="29.818308"
         x="42"
         y="86.546867" /><text
         xml:space="preserve"
         transform="matrix(0.45631476,0,0,0.45631476,-30.803436,-83.195761)"
         id="text42877-3-7"
         style="font-style:normal;font-variant:normal;font-weight:bold;font-stretch:normal;font-size:9.27722px;font-family:Montserrat;-inkscape-font-specification:'Montserrat Bold';text-align:center;white-space:pre;shape-inside:url(#rect42911-0-5);display:inline;fill:#ffffff;fill-opacity:1;stroke:none;stroke-width:2.62976;stroke-linecap:round;stroke-linejoin:round;stroke-dasharray:none;stroke-dashoffset:0;stroke-opacity:1;paint-order:stroke fill markers"
         x="-22.248554"
         y="0"><tspan
           x="183.71312"
           y="415.42312"
           id="tspan2072">Requires 
</tspan><tspan
           x="188.38132"
           y="427.01964"
           id="tspan2074">owo-lib</tspan></text><path
         id="path42901-8-8"
         style="fill:#ffffff;fill-opacity:1;stroke:none;stroke-width:1.2;stroke-linecap:round;stroke-linejoin:round;stroke-dasharray:none;stroke-dashoffset:0;stroke-opacity:1;paint-order:stroke fill markers"
         d="m 62.995214,91.147148 a 4.1257753,4.1257753 0 0 0 -2.90705,1.19818 c 0.14781,0.15813 0.26093,0.35385 0.32428,0.5739 l 0.19008,0.65863 a 2.9350145,2.9350145 0 0 1 2.39269,-1.23986 2.9350145,2.9350145 0 0 1 2.39865,1.24902 l 0.19283,-0.66963 c 0.0627,-0.21757 0.17411,-0.41115 0.31923,-0.56794 a 4.1257753,4.1257753 0 0 0 -2.91071,-1.2023 z m -3.83316,1.2307 c -0.0675,4e-4 -0.13486,0.0103 -0.20245,0.0298 -0.43256,0.12456 -0.67015,0.60785 -0.53313,1.08367 l 1.33283,4.63241 c 0.10796,0.37493 0.41577,0.62918 0.75299,0.65955 h 0.002 c 0.32109,0.0749 0.67347,-0.0727 0.8739,-0.39848 l 1.61177,-2.62079 1.61177,2.62079 c 0.20063,0.32611 0.55302,0.4739 0.87436,0.39848 h 0.002 c 0.33723,-0.0304 0.64502,-0.28461 0.75299,-0.65955 l 1.33329,-4.63241 c 0.137,-0.47581 -0.10057,-0.95911 -0.53313,-1.08367 -0.0676,-0.0195 -0.13676,-0.0293 -0.20428,-0.0298 -0.36467,-0.002 -0.70838,0.26173 -0.82398,0.66321 l -0.88306,3.06232 -1.42123,-2.31117 c -0.1714,-0.27859 -0.45173,-0.42684 -0.73054,-0.41726 -0.004,1.2e-4 -0.009,0.002 -0.0137,0.002 -0.008,4.2e-4 -0.0162,8.8e-4 -0.0243,0.002 -0.009,7e-4 -0.0189,8.9e-4 -0.0279,0.002 -0.24093,0.0276 -0.47233,0.17182 -0.62108,0.4136 l -1.42123,2.30933 -0.88306,-3.06232 c -0.1156,-0.40147 -0.45932,-0.66531 -0.82398,-0.66321 z m 4.73225,5.68585 a 2.9350145,2.9350145 0 0 1 -0.89909,0.14428 2.9350145,2.9350145 0 0 1 -0.89222,-0.14199 l -0.33847,0.55009 c -0.11101,0.18044 -0.25942,0.32619 -0.42917,0.43099 a 4.1257753,4.1257753 0 0 0 1.65986,0.35176 4.1257753,4.1257753 0 0 0 1.66765,-0.35222 c -0.16916,-0.10482 -0.31694,-0.25036 -0.42779,-0.43053 z" /></g><g
       id="g62553-2-3"
       transform="translate(287.229,-136.20752)"><rect
         style="fill:#0d0d0d;fill-opacity:0.00278554;stroke:none;stroke-width:0.536656;stroke-linecap:round;stroke-linejoin:round;stroke-dasharray:none;stroke-dashoffset:0;stroke-opacity:1;paint-order:stroke fill markers"
         id="rect46522-40-9-1"
         width="42"
         height="29.818308"
         x="125.99999"
         y="86.546852" /><text
         xml:space="preserve"
         transform="matrix(0.26458333,0,0,0.26458333,7.83189,-6.07647)"
         id="text42889-5-3"
         style="font-style:normal;font-variant:normal;font-weight:bold;font-stretch:normal;font-size:16px;font-family:Montserrat;-inkscape-font-specification:'Montserrat Bold';text-align:center;white-space:pre;shape-inside:url(#rect42915-6-9);display:inline;fill:#ffffff;fill-opacity:1;stroke:none;stroke-width:4.53543;stroke-linecap:round;stroke-linejoin:round;stroke-dasharray:none;stroke-dashoffset:0;stroke-opacity:1;paint-order:stroke fill markers"><tspan
           x="493.1897"
           y="424.98675"
           id="tspan2076">Join my
</tspan><tspan
           x="493.96115"
           y="444.98675"
           id="tspan2078">Discord</tspan></text><path
         d="m 150.71357,91.825573 c -0.69256,-0.32404 -1.43309,-0.55953 -2.20728,-0.69363 -0.0951,0.1719 -0.20617,0.40312 -0.28275,0.58704 -0.82299,-0.12371 -1.63843,-0.12371 -2.44629,0 -0.0765,-0.18392 -0.19018,-0.41514 -0.28611,-0.58704 -0.77503,0.1341 -1.51641,0.37046 -2.20897,0.69535 -1.39692,2.11091 -1.7756,4.1694 -1.58626,6.19865 0.92651,0.6919 1.82441,1.11222 2.70716,1.38724 0.21794,-0.29997 0.41233,-0.61884 0.57979,-0.9549 -0.31893,-0.12121 -0.6244,-0.27073 -0.91304,-0.44436 0.0767,-0.0568 0.15148,-0.11607 0.22385,-0.17706 1.76043,0.82341 3.6732,0.82341 5.41261,0 0.0732,0.061 0.14811,0.12029 0.22384,0.17706 -0.28948,0.17448 -0.59579,0.32403 -0.91471,0.44523 0.16745,0.33519 0.36101,0.65493 0.5798,0.95488 0.88359,-0.27503 1.78232,-0.69532 2.70883,-1.38809 0.22216,-2.35242 -0.37953,-4.392 -1.59047,-6.20037 z m -5.49087,4.9524 c -0.52848,0 -0.96186,-0.49334 -0.96186,-1.09414 0,-0.60078 0.42414,-1.09499 0.96186,-1.09499 0.53773,0 0.97111,0.49334 0.96185,1.09499 8.3e-4,0.6008 -0.42412,1.09414 -0.96185,1.09414 z m 3.55456,0 c -0.52848,0 -0.96186,-0.49334 -0.96186,-1.09414 0,-0.60078 0.42413,-1.09499 0.96186,-1.09499 0.53772,0 0.97111,0.49334 0.96185,1.09499 0,0.6008 -0.42413,1.09414 -0.96185,1.09414 z"
         fill="#5865f2"
         fill-rule="nonzero"
         id="path42905-3-6"
         style="fill:#ffffff;fill-opacity:1;stroke:none;stroke-width:1.2;stroke-linecap:round;stroke-linejoin:round;stroke-dasharray:none;stroke-opacity:1;paint-order:stroke fill markers" /></g></g></svg>
