<?xml version="1.0" encoding="UTF-8" standalone="no"?>
<!-- Created with Inkscape (http://www.inkscape.org/) -->

<svg
   width="42.000031mm"
   height="29.81831mm"
   viewBox="0 0 42.000031 29.81831"
   version="1.1"
   id="svg5"
   inkscape:version="1.2.1 (9c6d41e410, 2022-07-14)"
   sodipodi:docname="minecells_page.svg"
   xml:space="preserve"
   xmlns:inkscape="http://www.inkscape.org/namespaces/inkscape"
   xmlns:sodipodi="http://sodipodi.sourceforge.net/DTD/sodipodi-0.dtd"
   xmlns="http://www.w3.org/2000/svg"
   xmlns:svg="http://www.w3.org/2000/svg"><sodipodi:namedview
     id="namedview7"
     pagecolor="#505050"
     bordercolor="#ffffff"
     borderopacity="1"
     inkscape:showpageshadow="0"
     inkscape:pageopacity="0"
     inkscape:pagecheckerboard="1"
     inkscape:deskcolor="#505050"
     inkscape:document-units="mm"
     showgrid="false"
     inkscape:zoom="1.0444209"
     inkscape:cx="1432.8514"
     inkscape:cy="-208.72811"
     inkscape:window-width="1920"
     inkscape:window-height="1009"
     inkscape:window-x="-8"
     inkscape:window-y="-8"
     inkscape:window-maximized="1"
     inkscape:current-layer="layer1" /><defs
     id="defs2"><rect
       x="459.02795"
       y="410.28162"
       width="134.05241"
       height="39.267879"
       id="rect2092" /></defs><g
     inkscape:label="Warstwa 1"
     inkscape:groupmode="layer"
     id="layer1"
     transform="translate(-465.88935,49.660666)"><g
       id="g3596"
       inkscape:export-filename="..\mim1q_personal\wiki\docs\img\modrinth.svg"
       inkscape:export-xdpi="96"
       inkscape:export-ydpi="96"><rect
         style="fill:#0d0d0d;fill-opacity:0.00278554;stroke:none;stroke-width:0.536656;stroke-linecap:round;stroke-linejoin:round;stroke-dasharray:none;stroke-dashoffset:0;stroke-opacity:1;paint-order:stroke fill markers"
         id="rect2080"
         width="42"
         height="29.818308"
         x="465.88937"
         y="-49.660667" /><text
         xml:space="preserve"
         transform="matrix(0.26458333,0,0,0.26458333,347.72126,-142.28399)"
         id="text2086"
         style="font-style:normal;font-variant:normal;font-weight:bold;font-stretch:normal;font-size:16px;font-family:Montserrat;-inkscape-font-specification:'Montserrat Bold';text-align:center;white-space:pre;shape-inside:url(#rect2092);display:inline;fill:#ffffff;fill-opacity:1;stroke:none;stroke-width:4.53543;stroke-linecap:round;stroke-linejoin:round;stroke-dasharray:none;stroke-dashoffset:0;stroke-opacity:1;paint-order:stroke fill markers"><tspan
           x="483.22334"
           y="424.98675"
           id="tspan9665">Download
</tspan><tspan
           x="474.24266"
           y="444.98675"
           id="tspan9667">on Modrinth</tspan></text><path
         id="path2621"
         style="fill:#ffffff;fill-opacity:1;stroke-width:0.0195305"
         d="m 486.77501,-45.471154 c -0.41281,0.0041 -0.83205,0.06001 -1.24924,0.171636 -2.06086,0.55154 -3.47518,2.310014 -3.68415,4.309933 h 0.84565 c 0.20116,-1.623762 1.36233,-3.041589 3.04214,-3.49118 2.0761,-0.555641 4.2067,0.565421 4.94964,2.532335 l -0.82293,0.220344 c -0.3787,-0.915002 -1.14205,-1.586031 -2.04572,-1.871766 l -0.15123,0.856327 c 0.71344,0.263076 1.29219,0.856166 1.5039,1.645392 0.30859,1.150149 -0.26607,2.328775 -1.30861,2.817622 l 0.22545,0.839628 c 1.37026,-0.565407 2.19312,-1.989407 1.99841,-3.457317 l 0.82014,-0.219416 c 0.0879,0.560719 0.0573,1.117971 -0.0756,1.643536 l 0.83221,0.302451 c 0.22245,-0.822037 0.23764,-1.711767 9e-4,-2.593567 -0.60361,-2.249856 -2.65182,-3.728094 -4.88097,-3.705958 z m 0.0659,1.718685 c -0.28697,-0.0014 -0.57928,0.03451 -0.86979,0.112259 -1.75227,0.468924 -2.7917,2.267758 -2.32219,4.017687 0.0426,0.158783 0.0961,0.311838 0.15958,0.458316 l -0.75381,0.451822 c -0.10429,-0.221085 -0.19045,-0.454281 -0.25607,-0.698607 -0.0628,-0.233195 -0.10397,-0.467392 -0.12524,-0.7 h -0.8452 c 0.0229,0.30995 0.0752,0.622212 0.15865,0.933332 0.7156,2.666494 3.46,4.24921 6.13021,3.534785 1.4888,-0.398421 2.64017,-1.427119 3.24346,-2.721598 l -0.83313,-0.302916 c -0.50819,1.03863 -1.44621,1.860853 -2.65202,2.183496 -1.67513,0.448224 -3.38597,-0.195122 -4.37441,-1.493702 l 0.7501,-0.449967 c 0.70406,0.882386 1.83731,1.362389 2.99761,1.208879 l -0.22499,-0.839628 c -0.7775,0.06582 -1.52742,-0.249416 -2.02623,-0.817361 l 0.97276,-0.584028 0.55852,0.621603 1.24459,-0.394301 0.74267,-0.910601 -0.21431,-0.482438 -0.71994,0.22823 -0.32983,0.361829 -0.46342,0.123392 c -5.8e-4,-1.96e-4 -0.32843,-0.348839 -0.32843,-0.348839 l -0.16189,-0.450431 0.33075,-0.339561 0.46249,-0.145659 0.53022,-0.537176 -0.33306,-0.409609 -1.15044,0.247713 -0.91013,0.934724 0.29038,0.770509 -0.96394,0.577997 c -0.0285,-0.07539 -0.0532,-0.152916 -0.0747,-0.232405 -0.34648,-1.291744 0.42073,-2.619326 1.71404,-2.965601 0.20663,-0.05527 0.41407,-0.08205 0.61836,-0.08303 l 0.15122,-0.856327 c -0.0408,-0.0017 -0.0814,-0.0026 -0.12246,-0.0028 z" /></g></g><style
     type="text/css"
     id="style4759">
	.st0{fill:#0D0D0D;}
	.st1{fill:#FFFFFF;}
</style></svg>
